<svg width="1197" height="625" viewBox="0 0 1197 625" fill="none" xmlns="http://www.w3.org/2000/svg">
<path fill-rule="evenodd" clip-rule="evenodd" d="M546.991 0.272638C544.516 0.469638 534.841 1.12364 525.491 1.72564C223.967 21.1416 -16.8369 168.936 0.923088 323.682C18.2661 474.791 228.067 596.043 514.744 620.639C698.79 636.429 906.007 596.876 1037.49 520.858C1269.84 386.525 1245.6 190.64 982.235 74.3106C935.544 53.6876 871.041 33.0976 818.991 22.2006C769.141 11.7656 728.695 5.94164 675.991 1.61064C663.434 0.579635 557.022 -0.524362 546.991 0.272638ZM622.131 17.0796C653.763 23.1376 683.883 40.3956 712.053 68.6036C727.139 83.7096 747.991 110.39 747.991 114.587C747.991 115.956 453.246 116.129 451.086 114.762C447.872 112.727 471.494 82.0266 489.463 64.8856C516.411 39.1796 547.371 22.1596 575.991 17.3186C581.216 16.4356 586.616 15.5096 587.991 15.2616C592.576 14.4366 614.391 15.5976 622.131 17.0796ZM514.48 25.2166C482.99 44.9866 457.248 71.2436 437.553 103.682C434.381 108.907 431.071 113.745 430.197 114.432C428.526 115.747 300.042 116.338 295.248 115.053L293.004 114.452L297.248 111.234C355.207 67.2796 466.985 21.3676 519.894 19.7836L523.296 19.6816L514.48 25.2166ZM701.991 23.7786C711.616 25.3836 723.091 27.7876 727.491 29.1206C731.891 30.4536 741.409 33.3146 748.641 35.4796C793.116 48.7936 849.872 76.2176 888.414 103.017C893.956 106.87 899.934 110.959 901.699 112.103C903.463 113.246 904.925 114.483 904.949 114.851C905.007 115.777 774.289 115.824 770.115 114.899C767.213 114.256 766.027 112.958 761.677 105.666C742.611 73.7076 713.289 43.4086 683.991 25.3906L674.491 19.5486L679.491 20.2036C682.241 20.5636 692.366 22.1726 701.991 23.7786ZM414.991 31.1436C414.991 31.3976 411.504 32.6966 407.241 34.0306C370.637 45.4826 308.07 80.8156 275.516 108.42L267.54 115.182L233.016 115.444C214.027 115.588 192.199 115.363 184.508 114.944L170.525 114.182L192.008 103.511C218.919 90.1436 241.214 80.5146 266.6 71.2936C305.455 57.1806 346.194 45.5536 391.491 35.6516C415.76 30.3466 414.991 30.4936 414.991 31.1436ZM796.991 34.1486C809.001 36.7146 823.221 39.9046 840.991 44.0196C895.236 56.5816 964.453 81.9946 1010.86 106.388L1026.22 114.465L1012.86 115.152C1005.51 115.53 983.965 115.691 964.988 115.511L930.485 115.182L924.162 110.182C920.685 107.432 915.961 103.668 913.665 101.818C894.924 86.7126 857.759 63.6986 834.991 53.0996C830.866 51.1786 826.366 48.9986 824.991 48.2546C820.977 46.0826 805.354 39.6976 793.991 35.5856C781.528 31.0746 781.86 30.9156 796.991 34.1486ZM246.991 132.54C246.991 132.923 243.8 136.374 239.9 140.209C225.48 154.388 197.991 187.969 197.991 191.404C197.991 192.351 200.388 192.677 207.241 192.662L216.491 192.641L224.116 182.412C233.563 169.739 250.719 150.851 262.701 139.932L271.754 131.682H345.706C386.379 131.682 419.904 131.929 420.206 132.23C420.507 132.531 418.733 137.369 416.263 142.98C408.889 159.732 398.991 187.414 398.991 191.287C398.991 192.361 400.79 192.682 406.815 192.682H414.638L421.457 173.777C425.207 163.38 430.798 149.768 433.883 143.527L439.491 132.182L598.802 131.941L758.113 131.7L761.431 138.941C763.256 142.924 766.161 149.248 767.887 152.995C770.554 158.784 777.086 176.062 781.378 188.682L782.568 192.182L790.899 192.474L799.229 192.767L798.552 189.974C796.908 183.198 786.671 155.181 782.054 144.821C779.269 138.573 776.991 133.06 776.991 132.571C776.991 131.392 922.139 131.402 925.176 132.581C931.151 134.901 966.84 172.099 977.322 186.932L981.385 192.682H990.795C999.245 192.682 1000.14 192.508 999.552 190.98C997.349 185.24 977.351 160.684 960.219 142.684C955.247 137.46 951.389 132.848 951.644 132.434C952.711 130.708 1052.87 131.57 1056.29 133.335C1059.61 135.05 1069.27 141.356 1079.29 148.35C1119.14 176.164 1158.65 222.772 1170.69 256.153C1198.88 334.346 1165.74 410.23 1073.79 478.008L1066.1 483.682H1005.47H944.835L949.007 478.932C969.738 455.325 983.111 437.366 994.864 417.353C999.877 408.815 1007.99 393.271 1007.99 392.204C1007.99 391.917 1004.05 391.693 999.241 391.706L990.491 391.73L985.491 400.935C973.654 422.727 955.098 448.201 934.867 470.432L922.81 483.682H847.4C805.925 483.682 771.991 483.499 771.991 483.275C771.991 483.051 773.387 479.789 775.092 476.025C784.997 454.171 794.215 425.577 801.395 394.432L802.029 391.682H793.652H785.274L782.164 404.432C777.938 421.761 768.368 450.614 762.015 465.182C759.137 471.782 756.147 478.646 755.372 480.435L753.962 483.688L598.235 483.435L442.508 483.182L435.176 465.189C427.104 445.378 419.625 422.206 415.331 403.703L412.542 391.682H404.266C399.715 391.682 395.993 392.019 395.996 392.432C396.063 402.138 416.389 465.014 424.579 480.853L426.042 483.682L350.267 483.598L274.491 483.515L264.153 472.16C243.461 449.433 225.124 424.473 212.453 401.788L206.808 391.682H198.399C188.331 391.682 188.473 390.881 196.054 404.939C211.258 433.132 229.587 458.753 249.346 479.432L253.407 483.682H192.234H131.06L119.091 474.716C-20.4689 370.175 -16.3839 238.314 129.446 140.425L142.491 131.668L194.741 131.756C223.479 131.805 246.991 132.157 246.991 132.54ZM221.295 236.878C220.087 237.462 206.559 256.669 191.231 279.561C149.372 342.08 146.968 345.879 147.642 348.456L148.224 350.682H166.948H185.672L192.206 339.932L198.741 329.182L240.703 328.921L282.666 328.661L289.408 339.693L296.151 350.726L314.821 350.454L333.491 350.182L333.791 348.081C334.32 344.376 264.859 238.854 260.619 236.922C257.185 235.357 224.519 235.321 221.295 236.878ZM332.563 237.804L329.865 239.926L330.227 278.554L330.589 317.182L332.925 323.56C337.185 335.191 346.78 344.168 359.491 348.416C374.696 353.496 454.541 350.984 466.237 345.057C485.144 335.476 487.949 326.552 487.974 275.887L487.991 240.591L485.536 238.137L483.082 235.682H471.661C465.38 235.682 458.855 235.959 457.161 236.298L454.08 236.914L453.786 274.548C453.448 317.698 453.55 317.147 445.17 321.02L440.491 323.182H408.991H377.491L372.708 320.827C369.323 319.16 367.349 317.344 365.958 314.616L363.991 310.762V273.829C363.991 241.073 363.812 236.827 362.409 236.289C357.822 234.529 335.271 235.674 332.563 237.804ZM503.156 236.917C502.297 237.776 501.991 252.871 501.991 294.382V350.682H556.36C618.16 350.682 623.147 350.265 635.901 344.035C654.901 334.753 661.63 320.185 660.738 290.265C659.806 258.976 648.886 243.988 622.64 237.974C613.468 235.872 505.159 234.914 503.156 236.917ZM676.741 236.762L674.991 237.781V294.232V350.682H691.991H708.991V296.307C708.991 266.401 708.71 240.526 708.366 238.807L707.741 235.682L693.116 235.712C685.054 235.729 677.706 236.2 676.741 236.762ZM725.866 237.807L723.991 239.682L724.003 277.432C724.018 324.335 724.71 327.741 736.397 338.422C749.118 350.048 754.023 350.892 806.462 350.474L847.491 350.147L854.233 347.541C866.471 342.812 874.436 334.429 878.27 322.242L880.491 315.182L880.466 277.824L880.441 240.466L877.66 238.074C874.628 235.466 868.032 234.984 853.785 236.33L847.08 236.963L846.785 274.572L846.491 312.182L844.463 315.682C840.764 322.067 838.814 322.457 806.789 323.221C755.933 324.432 758.689 327.201 757.991 274.182L757.491 236.182L742.616 236.057C729.305 235.945 727.544 236.129 725.866 237.807ZM928.491 236.351C910.132 238.451 900.511 243.819 894.984 255.045C886.92 271.425 891.791 291.357 905.71 298.933C916.38 304.74 918.771 305.004 964.634 305.436L1006.78 305.833L1008.87 307.785C1013.09 311.71 1012.57 319.041 1007.91 321.417C1006.08 322.352 992.339 322.656 951.441 322.667C910.752 322.678 897.094 322.979 896.191 323.882C895.407 324.666 894.991 328.799 894.991 335.809V346.537L897.626 348.609L900.261 350.682H956.577C1015.88 350.682 1019.18 350.469 1028.63 346.045C1052.17 335.029 1052.84 295.563 1029.69 284.234C1019.86 279.428 1012.2 278.687 971.653 278.626C926.934 278.558 923.945 277.895 926.31 268.572C927.597 263.499 927.477 263.51 982.212 263.637C1019.55 263.724 1033.57 263.445 1034.59 262.596C1037.26 260.383 1036.51 241.113 1033.65 238.25L1031.31 235.909L981.4 235.959C953.95 235.986 930.141 236.162 928.491 236.351ZM246.116 267.741C248.11 270.734 253.806 280.018 258.773 288.372L267.804 303.562L241.147 303.872C226.486 304.043 214.324 304.09 214.121 303.979C213.917 303.867 218.078 296.791 223.367 288.254C242.506 257.363 240.442 259.224 246.116 267.741ZM609.891 264.754C622.855 267.534 626.491 273.761 626.491 293.182V307.182L623.839 311.693C618.12 321.421 611.826 322.664 568.241 322.674L535.991 322.682V293.182V263.682H570.442C591.176 263.682 606.883 264.109 609.891 264.754ZM274.453 504.432C313.014 538.975 377.533 577.919 417.308 590.659C428.675 594.3 412.791 591.802 381.491 585.026C301.675 567.747 218.102 536.615 163.991 504.002L158.491 500.687L214.379 500.685L270.267 500.682L274.453 504.432ZM437.252 506.682C457.289 542.73 489.474 578.564 517.768 596.328C528.611 603.135 528.577 603.088 521.991 602.271C464.801 595.182 405.782 573.788 349.491 539.743C332.153 529.257 300.935 506.935 297.034 502.234C295.857 500.815 302.234 500.692 364.965 500.925L434.195 501.182L437.252 506.682ZM743.991 501.478C743.991 507.829 708.994 552.696 693.897 565.699C629.233 621.393 562.165 620.051 499.84 561.818C484.344 547.339 452.991 506.73 452.991 501.138C452.991 500.887 518.466 500.682 598.491 500.682C678.516 500.682 743.991 501.04 743.991 501.478ZM898.518 503.932C856.7 538.53 803.494 567.396 746.491 586.413C719.41 595.447 717.854 595.782 673.491 602.159C670.853 602.538 670.715 602.445 672.35 601.386C693.474 587.703 704.968 578.37 718.168 564.182C732.459 548.822 750.889 523.517 760.594 505.933L763.491 500.684L832.969 500.683L902.447 500.682L898.518 503.932ZM1030.49 505.491C1011.67 516.799 983.581 530.604 957.991 541.127C905.935 562.535 856.196 577.005 787.655 590.68C776.483 592.909 772.825 592.947 780.132 590.758C817.561 579.544 884.328 539.114 921.991 504.857L926.491 500.764L982.491 500.725L1038.49 500.686L1030.49 505.491Z" fill="black"/>
</svg>
